<?xml version="1.0" standalone="no"?>
<!DOCTYPE svg PUBLIC "-//W3C//DTD SVG 20010904//EN"
 "http://www.w3.org/TR/2001/REC-SVG-20010904/DTD/svg10.dtd">
<svg version="1.0" xmlns="http://www.w3.org/2000/svg"
 width="1024.000000pt" height="1024.000000pt" viewBox="0 0 1024.000000 1024.000000"
 preserveAspectRatio="xMidYMid meet">
<metadata>
Created by potrace 1.11, written by Peter Selinger 2001-2013
</metadata>
<g transform="translate(0.000000,1024.000000) scale(0.100000,-0.100000)"
fill="#000000" stroke="none">
<path d="M3976 7618 c-3 -18 -156 -1077 -341 -2353 -184 -1276 -337 -2335
-340 -2352 l-6 -33 493 0 494 0 123 843 c68 463 126 854 128 870 l6 27 171 0
c355 1 762 27 928 61 561 113 964 529 1101 1136 19 86 21 128 21 338 1 258
-10 349 -61 525 -55 191 -159 376 -287 509 -220 229 -514 364 -943 432 -130
21 -175 23 -809 26 l-672 4 -6 -33z m1324 -837 c115 -40 181 -81 270 -171 136
-135 188 -270 176 -456 -20 -325 -272 -596 -621 -669 -92 -19 -458 -34 -468
-19 -5 8 182 1252 198 1323 l6 23 187 -4 c160 -4 196 -8 252 -27z"/>
</g>
</svg>
